<svg xmlns="http://www.w3.org/2000/svg" viewBox="0 0 1264.76 519"><defs><style>.cls-1{font-size:34.51px;font-family:HelveticaNeue-Bold, Helvetica Neue;font-weight:700;}.cls-2,.cls-3{fill:#1a1a1a;}.cls-3{font-size:20px;font-family:HelveticaNeue, Helvetica Neue;}.cls-4{letter-spacing:-0.02em;}.cls-5{letter-spacing:-0.09em;}.cls-6{letter-spacing:0.02em;}.cls-7{letter-spacing:-0.02em;}.cls-8{fill:#90af91;}</style></defs><title>algorithm</title><g id="Layer_2" data-name="Layer 2"><g id="Layer_1-2" data-name="Layer 1"><text class="cls-1" transform="translate(0 165.17)">1.</text><text class="cls-1" transform="translate(186.98 165.17)">2.</text><text class="cls-1" transform="translate(670.78 165.17)">3.</text><text class="cls-1" transform="translate(1010.67 165.17)">4.</text><rect class="cls-2" x="60.5" y="50.1" width="53.75" height="8.62"/><rect class="cls-2" x="41.74" y="50.1" width="8.62" height="8.62"/><rect class="cls-2" x="397.63" width="53.75" height="8.62"/><rect class="cls-2" x="378.86" width="8.62" height="8.62"/><rect class="cls-2" x="397.63" y="16.42" width="53.75" height="8.62"/><rect class="cls-2" x="378.86" y="16.42" width="8.62" height="8.62"/><rect class="cls-2" x="397.63" y="49.25" width="53.75" height="8.62"/><rect class="cls-2" x="378.86" y="49.25" width="8.62" height="8.62"/><rect class="cls-2" x="397.63" y="32.84" width="53.75" height="8.62"/><rect class="cls-2" x="378.86" y="32.84" width="8.62" height="8.62"/><rect class="cls-2" x="397.63" y="65.67" width="53.75" height="8.62"/><rect class="cls-2" x="378.86" y="65.67" width="8.62" height="8.62"/><rect class="cls-2" x="397.63" y="82.09" width="53.75" height="8.62"/><rect class="cls-2" x="378.86" y="82.09" width="8.62" height="8.62"/><rect class="cls-2" x="397.63" y="98.51" width="53.75" height="8.62"/><rect class="cls-2" x="378.86" y="98.51" width="8.62" height="8.62"/><rect class="cls-2" x="747.81" y="66.53" width="53.75" height="8.62"/><rect class="cls-2" x="747.81" y="99.99" width="53.75" height="8.62"/><rect class="cls-2" x="747.81" y="83.26" width="53.75" height="8.62"/><rect class="cls-2" x="729.05" y="66.53" width="8.62" height="8.62"/><rect class="cls-2" x="729.05" y="83.26" width="8.62" height="8.62"/><rect class="cls-2" x="729.05" y="99.99" width="8.62" height="8.62"/><rect class="cls-2" x="1082.55" y="17.58" width="53.75" height="8.62"/><rect class="cls-2" x="1082.55" y="51.04" width="53.75" height="8.62"/><rect class="cls-2" x="1082.55" y="67.78" width="53.75" height="8.62"/><rect class="cls-2" x="1082.55" y="34.31" width="53.75" height="8.62"/><rect class="cls-2" x="1063.79" y="17.58" width="8.62" height="8.62"/><rect class="cls-2" x="1063.79" y="34.31" width="8.62" height="8.62"/><rect class="cls-2" x="1063.79" y="67.78" width="8.62" height="8.62"/><rect class="cls-2" x="1063.79" y="51.04" width="8.62" height="8.62"/><text class="cls-3" transform="translate(241.23 156.11)">Identify candidate tracks f<tspan class="cls-4" x="231.52" y="0">r</tspan><tspan x="237.82" y="0">om either: </tspan><tspan x="0" y="32.45">A) top tracks f</tspan><tspan class="cls-4" x="125.2" y="32.45">r</tspan><tspan x="131.5" y="32.45">om Spotify-defined </tspan><tspan class="cls-4" x="308.58" y="32.45">r</tspan><tspan x="314.88" y="32.45">elated </tspan><tspan x="0" y="56.45">artists</tspan><tspan x="0" y="88.9">B) tracks f</tspan><tspan class="cls-4" x="90.74" y="88.9">r</tspan><tspan x="97.04" y="88.9">om </tspan><tspan class="cls-4" x="131.14" y="88.9">r</tspan><tspan x="137.44" y="88.9">elated artists identified as </tspan><tspan x="0" y="112.9">acoustically similar to the seed song. Acoustic </tspan><tspan x="0" y="136.9">similarity is found using the manhattan </tspan><tspan x="0" y="160.9">distance and Spotify API audio featu</tspan><tspan class="cls-4" x="325.98" y="160.9">r</tspan><tspan x="332.28" y="160.9">es.</tspan><tspan x="0" y="193.35">C) </tspan><tspan class="cls-5" x="25.18" y="193.35">T</tspan><tspan x="34.82" y="193.35">racks f</tspan><tspan class="cls-4" x="94.82" y="193.35">r</tspan><tspan x="101.12" y="193.35">om a separate database of tracks </tspan><tspan x="0" y="217.35">identified as acoustically similar to the seed </tspan><tspan x="0" y="241.35">song. Acoustic similarity is found using </tspan><tspan x="0" y="265.35">vantage points and Earth mover&apos;s distance.</tspan></text><text class="cls-3" transform="translate(38.75 156.11)">Input a seed <tspan x="0" y="24">track</tspan></text><text class="cls-3" transform="translate(1063.76 156.11)">Retu<tspan class="cls-6" x="41.86" y="0">r</tspan><tspan x="48.88" y="0">n the playlist </tspan><tspan x="0" y="24">p</tspan><tspan class="cls-7" x="11.86" y="24">r</tspan><tspan x="18.16" y="24">edicted to be most </tspan><tspan x="0" y="48">successful.</tspan></text><text></text><text class="cls-3" transform="translate(722.63 156.11)">Perform simulated annealing <tspan x="0" y="24">to optimize the class </tspan><tspan x="0" y="48">(pseudo) p</tspan><tspan class="cls-7" x="94.84" y="48">r</tspan><tspan x="101.14" y="48">obability </tspan><tspan x="0" y="72">distribution of p</tspan><tspan class="cls-7" x="140.39" y="72">r</tspan><tspan x="146.7" y="72">edicted </tspan><tspan x="0" y="96">number of followers, starting </tspan><tspan x="0" y="120">with a random sample of 30 </tspan><tspan x="0" y="144">candidate tracks. Run four </tspan><tspan x="0" y="168">optimization p</tspan><tspan class="cls-7" x="126.67" y="168">r</tspan><tspan x="132.97" y="168">ocesses in </tspan><tspan x="0" y="192">parallel and select the best </tspan><tspan class="cls-7" x="0" y="216">r</tspan><tspan x="6.3" y="216">esult.</tspan></text><rect class="cls-2" x="831.76" y="66.53" width="53.75" height="8.62"/><rect class="cls-2" x="831.76" y="99.99" width="53.75" height="8.62"/><rect class="cls-2" x="831.76" y="83.26" width="53.75" height="8.62"/><rect class="cls-2" x="813" y="66.53" width="8.62" height="8.62"/><rect class="cls-2" x="813" y="83.26" width="8.62" height="8.62"/><rect class="cls-2" x="813" y="99.99" width="8.62" height="8.62"/><rect class="cls-2" x="747.81" y="5.54" width="53.75" height="8.62"/><rect class="cls-2" x="747.81" y="39.01" width="53.75" height="8.62"/><rect class="cls-2" x="747.81" y="22.28" width="53.75" height="8.62"/><rect class="cls-2" x="729.05" y="5.54" width="8.62" height="8.62"/><rect class="cls-2" x="729.05" y="22.28" width="8.62" height="8.62"/><rect class="cls-2" x="729.05" y="39.01" width="8.62" height="8.62"/><rect class="cls-2" x="831.76" y="5.54" width="53.75" height="8.62"/><rect class="cls-2" x="831.76" y="39.01" width="53.75" height="8.62"/><rect class="cls-2" x="831.76" y="22.28" width="53.75" height="8.62"/><rect class="cls-2" x="813" y="5.54" width="8.62" height="8.62"/><rect class="cls-2" x="813" y="22.28" width="8.62" height="8.62"/><rect class="cls-2" x="813" y="39.01" width="8.62" height="8.62"/><rect class="cls-8" x="198.06" y="47.5" width="54.43" height="11.91"/><polygon class="cls-8" points="276.47 53.11 250.96 67.84 250.96 38.38 276.47 53.11"/><rect class="cls-8" x="545.35" y="47.5" width="54.43" height="11.91"/><polygon class="cls-8" points="623.76 53.11 598.25 67.84 598.25 38.38 623.76 53.11"/><rect class="cls-8" x="937.38" y="48.29" width="54.43" height="11.91"/><polygon class="cls-8" points="1015.78 53.9 990.27 68.63 990.27 39.17 1015.78 53.9"/></g></g></svg>