<svg xmlns="http://www.w3.org/2000/svg" viewBox="0 0 714.01 604.72"><defs><style>.cls-1,.cls-3{fill:none;}.cls-1,.cls-3,.cls-4{stroke:#000;stroke-miterlimit:10;}.cls-2{font-size:20.99px;}.cls-2,.cls-5,.cls-6{font-family:HelveticaNeue-Bold, Helvetica Neue;}.cls-2,.cls-5,.cls-7{font-weight:700;}.cls-3{stroke-linecap:round;stroke-width:2px;}.cls-4{stroke-width:0.5px;}.cls-5{font-size:16.19px;}.cls-6{font-size:35px;}.cls-12,.cls-6{fill:#333;}.cls-8{letter-spacing:-0.06em;}.cls-9{letter-spacing:-0.11em;}.cls-10{letter-spacing:-0.09em;}.cls-11{font-size:25px;font-family:HelveticaNeue, Helvetica Neue;}.cls-12{font-size:30px;font-family:MyriadPro-Regular, Myriad Pro;}.cls-13{letter-spacing:-0.02em;}.cls-14{letter-spacing:-0.01em;}.cls-15{letter-spacing:0.02em;}.cls-16{letter-spacing:-0.01em;}.cls-17{letter-spacing:0em;}.cls-18{letter-spacing:-0.01em;}.cls-19{letter-spacing:0.01em;}.cls-20{letter-spacing:-0.04em;}.cls-21{letter-spacing:-0.07em;}.cls-22{letter-spacing:-0.05em;}.cls-23{letter-spacing:0em;}.cls-24{letter-spacing:0em;}.cls-25{letter-spacing:-0.01em;}</style></defs><title>Asset 4</title><g id="Layer_2" data-name="Layer 2"><g id="Layer_1-2" data-name="Layer 1"><line class="cls-1" x1="143.21" y1="462.08" x2="591.09" y2="462.08"/><line class="cls-1" x1="143.21" y1="462.08" x2="143.21" y2="455.07"/><line class="cls-1" x1="183.93" y1="462.08" x2="183.93" y2="455.07"/><line class="cls-1" x1="224.64" y1="462.08" x2="224.64" y2="455.07"/><line class="cls-1" x1="265.36" y1="462.08" x2="265.36" y2="455.07"/><line class="cls-1" x1="306.08" y1="462.08" x2="306.08" y2="455.07"/><line class="cls-1" x1="346.79" y1="462.08" x2="346.79" y2="455.07"/><line class="cls-1" x1="387.51" y1="462.08" x2="387.51" y2="455.07"/><line class="cls-1" x1="428.22" y1="462.08" x2="428.22" y2="455.07"/><line class="cls-1" x1="468.94" y1="462.08" x2="468.94" y2="455.07"/><line class="cls-1" x1="509.65" y1="462.08" x2="509.65" y2="455.07"/><line class="cls-1" x1="550.37" y1="462.08" x2="550.37" y2="455.07"/><line class="cls-1" x1="591.09" y1="462.08" x2="591.09" y2="455.07"/><text class="cls-2" transform="translate(89.52 469.96)">5000</text><text class="cls-2" transform="translate(89.52 376.42)">6000</text><text class="cls-2" transform="translate(89.52 282.88)">7000</text><text class="cls-2" transform="translate(89.52 189.34)">8000</text><line class="cls-1" x1="143.21" y1="462.08" x2="143.21" y2="181.47"/><line class="cls-1" x1="143.21" y1="462.08" x2="154.41" y2="462.08"/><line class="cls-1" x1="143.21" y1="368.54" x2="154.41" y2="368.54"/><line class="cls-1" x1="143.21" y1="275.01" x2="154.41" y2="275.01"/><line class="cls-1" x1="143.21" y1="181.47" x2="154.41" y2="181.47"/><line class="cls-3" x1="204.29" y1="326.45" x2="163.57" y2="328.79"/><line class="cls-3" x1="245" y1="382.58" x2="204.29" y2="326.45"/><line class="cls-3" x1="285.72" y1="335.81" x2="245" y2="382.58"/><line class="cls-3" x1="326.43" y1="359.19" x2="285.72" y2="335.81"/><line class="cls-3" x1="367.15" y1="382.58" x2="326.43" y2="359.19"/><line class="cls-3" x1="407.86" y1="356.85" x2="367.15" y2="382.58"/><line class="cls-3" x1="448.58" y1="375.56" x2="407.86" y2="356.85"/><line class="cls-3" x1="489.3" y1="382.58" x2="448.58" y2="375.56"/><line class="cls-3" x1="530.01" y1="335.81" x2="489.3" y2="382.58"/><line class="cls-3" x1="570.73" y1="382.58" x2="530.01" y2="335.81"/><rect class="cls-4" x="161.17" y="326.39" width="4.8" height="4.8"/><rect class="cls-4" x="201.89" y="324.05" width="4.8" height="4.8"/><rect class="cls-4" x="242.6" y="380.18" width="4.8" height="4.8"/><rect class="cls-4" x="283.32" y="333.41" width="4.8" height="4.8"/><rect class="cls-4" x="324.03" y="356.79" width="4.8" height="4.8"/><rect class="cls-4" x="364.75" y="380.18" width="4.8" height="4.8"/><rect class="cls-4" x="405.46" y="354.45" width="4.8" height="4.8"/><rect class="cls-4" x="446.18" y="373.16" width="4.8" height="4.8"/><rect class="cls-4" x="486.9" y="380.18" width="4.8" height="4.8"/><rect class="cls-4" x="527.61" y="333.41" width="4.8" height="4.8"/><rect class="cls-4" x="568.33" y="380.18" width="4.8" height="4.8"/><text class="cls-5" transform="translate(549.13 482.21)">100%</text><text class="cls-5" transform="translate(512.91 482.21)">90%</text><text class="cls-5" transform="translate(472.2 482.21)">80%</text><text class="cls-5" transform="translate(431.48 482.21)">70%</text><text class="cls-5" transform="translate(390.77 482.21)">60%</text><text class="cls-5" transform="translate(350.05 482.21)">50%</text><text class="cls-5" transform="translate(309.33 482.21)">40%</text><text class="cls-5" transform="translate(268.62 482.21)">30%</text><text class="cls-5" transform="translate(227.9 482.21)">20%</text><text class="cls-5" transform="translate(187.19 482.21)">10%</text><text class="cls-5" transform="translate(159.07 482.21)">0</text><text class="cls-6" transform="translate(85.59 29.99)"><tspan class="cls-7"><tspan class="cls-8">W</tspan><tspan x="31.04" y="0">eighting of </tspan><tspan class="cls-9" x="218.29" y="0">T</tspan><tspan x="235.79" y="0">op </tspan><tspan class="cls-10" x="288.29" y="0">T</tspan><tspan x="306.46" y="0">racks </tspan><tspan x="0" y="42">vs. Performance:</tspan></tspan><tspan class="cls-11"><tspan x="0" y="80.4">High performance can be achieved using either top </tspan><tspan x="0" y="110.4">tracks or acoustically similar songs.</tspan></tspan></text><text class="cls-12" transform="translate(130.59 538.3)"><tspan class="cls-13">P</tspan><tspan class="cls-14" x="15.48" y="0">r</tspan><tspan x="24.99" y="0">opo</tspan><tspan class="cls-15" x="75" y="0">r</tspan><tspan x="85.53" y="0">tion of </tspan><tspan class="cls-16" x="173.54" y="0">C</tspan><tspan x="190.73" y="0">andid</tspan><tspan class="cls-17" x="262.7" y="0">a</tspan><tspan class="cls-18" x="277.04" y="0">t</tspan><tspan x="286.79" y="0">e </tspan><tspan class="cls-19" x="308.18" y="0">S</tspan><tspan x="323.15" y="0">ongs th</tspan><tspan class="cls-17" x="417.86" y="0">a</tspan><tspan x="432.2" y="0">t </tspan><tspan x="0" y="36">a</tspan><tspan class="cls-14" x="14.46" y="36">r</tspan><tspan x="23.97" y="36">e</tspan><tspan class="cls-20" x="39" y="36"> </tspan><tspan class="cls-21" x="44.13" y="36">T</tspan><tspan x="56.91" y="36">op</tspan><tspan class="cls-20" x="90.45" y="36"> </tspan><tspan class="cls-22" x="95.58" y="36">T</tspan><tspan class="cls-23" x="109.14" y="36">r</tspan><tspan x="118.8" y="36">acks</tspan></text><text class="cls-12" transform="translate(25.11 472.07) rotate(-90)">Simul<tspan class="cls-17" x="70.44" y="0">a</tspan><tspan class="cls-18" x="84.78" y="0">t</tspan><tspan x="94.53" y="0">ed </tspan><tspan class="cls-24" x="132.84" y="0">A</tspan><tspan x="151.11" y="0">nnealing </tspan><tspan x="0" y="36">Ene</tspan><tspan class="cls-25" x="46.44" y="36">r</tspan><tspan x="56.01" y="36">gy (loss)</tspan></text></g></g></svg>