<svg xmlns="http://www.w3.org/2000/svg" viewBox="0 0 830.9 485.72"><defs><style>.cls-1{fill:none;stroke:#000;stroke-miterlimit:10;}.cls-2{font-size:18.03px;}.cls-12,.cls-15,.cls-2{font-family:MyriadPro-Regular, Myriad Pro;}.cls-3{fill:#ccc;}.cls-4{fill:#006837;}.cls-5{letter-spacing:0em;}.cls-6{letter-spacing:0.01em;}.cls-7{letter-spacing:0em;}.cls-8{letter-spacing:0em;}.cls-9{letter-spacing:0em;}.cls-10{letter-spacing:-0.01em;}.cls-11{letter-spacing:0em;}.cls-12{font-size:20.8px;}.cls-13{font-size:35px;font-family:HelveticaNeue-Bold, Helvetica Neue;font-weight:700;}.cls-13,.cls-15,.cls-24{fill:#333;}.cls-14{letter-spacing:-0.02em;}.cls-15,.cls-24{font-size:30px;}.cls-16{letter-spacing:0em;}.cls-17{letter-spacing:0em;}.cls-18{letter-spacing:-0.02em;}.cls-19{letter-spacing:-0.01em;}.cls-20{letter-spacing:0.01em;}.cls-21{letter-spacing:-0.01em;}.cls-22{letter-spacing:-0.03em;}.cls-23{letter-spacing:-0.01em;}.cls-24{font-family:HelveticaNeue, Helvetica Neue;}.cls-25{letter-spacing:-0.02em;}</style></defs><title>Asset 3</title><g id="Layer_2" data-name="Layer 2"><g id="Layer_1-2" data-name="Layer 1"><line class="cls-1" x1="95.28" y1="397.02" x2="480.02" y2="397.02"/><line class="cls-1" x1="95.28" y1="397.02" x2="95.28" y2="389.89"/><line class="cls-1" x1="172.23" y1="397.02" x2="172.23" y2="389.89"/><line class="cls-1" x1="249.18" y1="397.02" x2="249.18" y2="389.89"/><line class="cls-1" x1="326.13" y1="397.02" x2="326.13" y2="389.89"/><line class="cls-1" x1="403.08" y1="397.02" x2="403.08" y2="389.89"/><line class="cls-1" x1="480.02" y1="397.02" x2="480.02" y2="389.89"/><text class="cls-2" transform="translate(67.03 403.79)">0.0</text><text class="cls-2" transform="translate(67.03 346.68)">0.1</text><text class="cls-2" transform="translate(67.03 289.57)">0.2</text><text class="cls-2" transform="translate(67.03 232.46)">0.3</text><text class="cls-2" transform="translate(67.03 175.35)">0.4</text><text class="cls-2" transform="translate(67.03 118.24)">0.5</text><line class="cls-1" x1="95.28" y1="397.02" x2="95.28" y2="111.48"/><line class="cls-1" x1="95.28" y1="397.02" x2="104.9" y2="397.02"/><line class="cls-1" x1="95.28" y1="339.92" x2="104.9" y2="339.92"/><line class="cls-1" x1="95.28" y1="282.81" x2="104.9" y2="282.81"/><line class="cls-1" x1="95.28" y1="225.7" x2="104.9" y2="225.7"/><line class="cls-1" x1="95.28" y1="168.59" x2="104.9" y2="168.59"/><line class="cls-1" x1="95.28" y1="111.48" x2="104.9" y2="111.48"/><rect class="cls-3" x="507.27" y="111.48" width="48.09" height="28.55"/><rect class="cls-3" x="135.29" y="237.12" width="27.7" height="159.91"/><rect class="cls-3" x="212.24" y="288.52" width="27.7" height="108.51"/><rect class="cls-3" x="289.19" y="339.92" width="27.7" height="57.11"/><rect class="cls-3" x="366.14" y="214.27" width="27.7" height="182.75"/><rect class="cls-3" x="443.09" y="334.2" width="27.7" height="62.82"/><rect class="cls-4" x="507.27" y="154.31" width="48.09" height="28.55"/><rect class="cls-4" x="104.51" y="282.81" width="27.7" height="114.22"/><rect class="cls-4" x="181.46" y="322.78" width="27.7" height="74.24"/><rect class="cls-4" x="258.41" y="345.63" width="27.7" height="51.4"/><rect class="cls-4" x="335.36" y="328.49" width="27.7" height="68.53"/><rect class="cls-4" x="412.31" y="134.32" width="27.7" height="262.7"/><text class="cls-2" transform="translate(561.38 132.52)">Similar t<tspan class="cls-5" x="61.01" y="0">r</tspan><tspan x="66.82" y="0">acks - </tspan><tspan class="cls-6" x="112.37" y="0">R</tspan><tspan class="cls-7" x="122.29" y="0">andom </tspan><tspan class="cls-8" x="179.93" y="0">S</tspan><tspan class="cls-7" x="188.88" y="0">ampling</tspan></text><text class="cls-2" transform="translate(561.38 175.35)">Similar t<tspan class="cls-5" x="61.01" y="0">r</tspan><tspan x="66.82" y="0">acks - Simul</tspan><tspan class="cls-9" x="154.72" y="0">a</tspan><tspan class="cls-10" x="163.34" y="0">t</tspan><tspan x="169.2" y="0">ed </tspan><tspan class="cls-11" x="192.23" y="0">A</tspan><tspan class="cls-7" x="203.21" y="0">nnealing</tspan></text><text class="cls-12" transform="translate(441.55 415.01)">5</text><text class="cls-12" transform="translate(364.6 415.01)">4</text><text class="cls-12" transform="translate(287.65 415.01)">3</text><text class="cls-12" transform="translate(210.7 415.01)">2</text><text class="cls-12" transform="translate(133.75 415.01)">1</text><text class="cls-13" transform="translate(60.94 29.99)">Simulated Annealing inc<tspan class="cls-14" x="402.32" y="0">r</tspan><tspan x="415.31" y="0">eases </tspan><tspan x="0" y="42">optimization performance significantly </tspan></text><text class="cls-15" transform="translate(90.61 465.3)"><tspan class="cls-16">Q</tspan><tspan x="20.76" y="0">ua</tspan><tspan class="cls-17" x="51.75" y="0">n</tspan><tspan x="68.28" y="0">tile of </tspan><tspan class="cls-18" x="145.29" y="0">P</tspan><tspan class="cls-19" x="160.77" y="0">r</tspan><tspan x="170.28" y="0">edi</tspan><tspan class="cls-20" x="209.25" y="0">c</tspan><tspan class="cls-21" x="223.08" y="0">t</tspan><tspan x="232.82" y="0">ed # of </tspan><tspan class="cls-22" x="323.99" y="0">F</tspan><tspan x="337.67" y="0">oll</tspan><tspan class="cls-23" x="368.3" y="0">o</tspan><tspan class="cls-19" x="384.56" y="0">w</tspan><tspan x="406.34" y="0">ers</tspan></text><text class="cls-24" transform="translate(25.71 357.39) rotate(-90)">Class P<tspan class="cls-25" x="102.21" y="0">r</tspan><tspan x="111.66" y="0">obability</tspan></text></g></g></svg>