<svg xmlns="http://www.w3.org/2000/svg" viewBox="0 0 718.53 485"><defs><style>.cls-1{fill:none;stroke:#000;stroke-miterlimit:10;}.cls-2{font-size:18.03px;}.cls-11,.cls-15,.cls-2{font-family:MyriadPro-Regular, Myriad Pro;}.cls-3{fill:#ccc;}.cls-4{fill:#3a7c5b;}.cls-5{letter-spacing:0em;}.cls-6{letter-spacing:0.01em;}.cls-7{letter-spacing:0em;}.cls-8{letter-spacing:0em;}.cls-9{letter-spacing:-0.01em;}.cls-10{letter-spacing:0em;}.cls-11{font-size:20.8px;}.cls-12,.cls-15,.cls-24{font-size:30px;fill:#333;}.cls-12{font-family:HelveticaNeue-Bold, Helvetica Neue;font-weight:700;}.cls-13{letter-spacing:-0.02em;}.cls-14{font-size:35px;}.cls-16{letter-spacing:0em;}.cls-17{letter-spacing:0em;}.cls-18{letter-spacing:-0.02em;}.cls-19{letter-spacing:-0.01em;}.cls-20{letter-spacing:0.01em;}.cls-21{letter-spacing:-0.01em;}.cls-22{letter-spacing:-0.03em;}.cls-23{letter-spacing:-0.01em;}.cls-24{font-family:HelveticaNeue, Helvetica Neue;}</style></defs><title>sim_annealing_bar_chart</title><g id="Layer_2" data-name="Layer 2"><g id="Layer_1-2" data-name="Layer 1"><line class="cls-1" x1="95.28" y1="396.31" x2="480.02" y2="396.31"/><line class="cls-1" x1="95.28" y1="396.31" x2="95.28" y2="389.17"/><line class="cls-1" x1="172.23" y1="396.31" x2="172.23" y2="389.17"/><line class="cls-1" x1="249.18" y1="396.31" x2="249.18" y2="389.17"/><line class="cls-1" x1="326.13" y1="396.31" x2="326.13" y2="389.17"/><line class="cls-1" x1="403.08" y1="396.31" x2="403.08" y2="389.17"/><line class="cls-1" x1="480.02" y1="396.31" x2="480.02" y2="389.17"/><text class="cls-2" transform="translate(57.78 403.07)">0.00</text><text class="cls-2" transform="translate(57.78 355.48)">0.05</text><text class="cls-2" transform="translate(57.78 307.89)">0.10</text><text class="cls-2" transform="translate(57.78 260.3)">0.15</text><text class="cls-2" transform="translate(57.78 212.71)">0.20</text><text class="cls-2" transform="translate(57.78 165.12)">0.25</text><text class="cls-2" transform="translate(57.78 117.53)">0.30</text><line class="cls-1" x1="95.28" y1="396.31" x2="95.28" y2="110.76"/><line class="cls-1" x1="95.28" y1="396.31" x2="104.9" y2="396.31"/><line class="cls-1" x1="95.28" y1="348.72" x2="104.9" y2="348.72"/><line class="cls-1" x1="95.28" y1="301.13" x2="104.9" y2="301.13"/><line class="cls-1" x1="95.28" y1="253.54" x2="104.9" y2="253.54"/><line class="cls-1" x1="95.28" y1="205.95" x2="104.9" y2="205.95"/><line class="cls-1" x1="95.28" y1="158.35" x2="104.9" y2="158.35"/><line class="cls-1" x1="95.28" y1="110.76" x2="104.9" y2="110.76"/><rect class="cls-3" x="507.27" y="120.76" width="48.09" height="28.55"/><rect class="cls-3" x="135.29" y="129.8" width="27.7" height="266.51"/><rect class="cls-3" x="212.24" y="177.39" width="27.7" height="218.92"/><rect class="cls-3" x="289.19" y="196.43" width="27.7" height="199.88"/><rect class="cls-3" x="366.14" y="224.98" width="27.7" height="171.33"/><rect class="cls-3" x="443.09" y="301.13" width="27.7" height="95.18"/><rect class="cls-4" x="507.27" y="185.6" width="48.09" height="28.55"/><rect class="cls-4" x="104.51" y="244.02" width="27.7" height="152.29"/><rect class="cls-4" x="181.46" y="177.39" width="27.7" height="218.92"/><rect class="cls-4" x="258.41" y="263.05" width="27.7" height="133.26"/><rect class="cls-4" x="335.36" y="224.98" width="27.7" height="171.33"/><rect class="cls-4" x="412.31" y="120.28" width="27.7" height="276.03"/><text class="cls-2" transform="translate(561.38 131.8)">Similar t<tspan class="cls-5" x="61.01" y="0">r</tspan><tspan x="66.82" y="0">acks - </tspan><tspan class="cls-6" x="0" y="21.64">R</tspan><tspan x="9.92" y="21.64">andom </tspan><tspan class="cls-7" x="67.56" y="21.64">S</tspan><tspan x="76.5" y="21.64">ampling</tspan></text><text class="cls-2"><tspan x="561.38" y="196.28">Similar t</tspan><tspan class="cls-5" x="622.39" y="196.28">r</tspan><tspan x="628.19" y="196.28">acks - </tspan><tspan x="561.38" y="217.92">Simul</tspan><tspan class="cls-8" x="603.72" y="217.92">a</tspan><tspan class="cls-9" x="612.34" y="217.92">t</tspan><tspan x="618.2" y="217.92">ed </tspan><tspan class="cls-10" x="641.23" y="217.92">A</tspan><tspan x="652.22" y="217.92">nnealing</tspan></text><text class="cls-11" transform="translate(441.55 414.3)">5</text><text class="cls-11" transform="translate(364.6 414.3)">4</text><text class="cls-11" transform="translate(287.65 414.3)">3</text><text class="cls-11" transform="translate(210.7 414.3)">2</text><text class="cls-11" transform="translate(133.75 414.3)">1</text><text class="cls-12" transform="translate(60.94 25.71)">Simulated Annealing inc<tspan class="cls-13" x="344.85" y="0">r</tspan><tspan x="355.98" y="0">eases </tspan><tspan x="0" y="42">optimization performance significantly</tspan><tspan class="cls-14" x="549.15" y="42"> </tspan></text><text class="cls-15" transform="translate(90.61 464.59)"><tspan class="cls-16">Q</tspan><tspan x="20.76" y="0">ua</tspan><tspan class="cls-17" x="51.75" y="0">n</tspan><tspan x="68.28" y="0">tile of </tspan><tspan class="cls-18" x="145.29" y="0">P</tspan><tspan class="cls-19" x="160.77" y="0">r</tspan><tspan x="170.28" y="0">edi</tspan><tspan class="cls-20" x="209.25" y="0">c</tspan><tspan class="cls-21" x="223.08" y="0">t</tspan><tspan x="232.82" y="0">ed # of </tspan><tspan class="cls-22" x="323.99" y="0">F</tspan><tspan x="337.67" y="0">oll</tspan><tspan class="cls-23" x="368.3" y="0">o</tspan><tspan class="cls-19" x="384.56" y="0">w</tspan><tspan x="406.34" y="0">ers</tspan></text><text class="cls-24" transform="translate(25.71 356.68) rotate(-90)">Class P<tspan class="cls-13" x="102.21" y="0">r</tspan><tspan x="111.66" y="0">obability</tspan></text></g></g></svg>